<mxfile host="app.diagrams.net" agent="Mozilla/5.0 (Windows NT 10.0; Win64; x64) AppleWebKit/537.36 (KHTML, like Gecko) Chrome/136.0.0.0 Safari/537.36" version="27.0.2">
  <diagram name="Page-1" id="cLsHhOsTv1Qdf6qpvLC8">
    <mxGraphModel dx="616" dy="1969" grid="1" gridSize="10" guides="1" tooltips="1" connect="1" arrows="1" fold="1" page="1" pageScale="1" pageWidth="850" pageHeight="1100" math="0" shadow="0">
      <root>
        <mxCell id="0" />
        <mxCell id="1" parent="0" />
        <mxCell id="fUInM-q33QLJyEfKflRt-122" value="Pico-Restro - All in One UCD" style="swimlane;whiteSpace=wrap;html=1;startSize=24;" vertex="1" parent="1">
          <mxGeometry x="1479" y="-38" width="1030" height="1988" as="geometry" />
        </mxCell>
        <mxCell id="fUInM-q33QLJyEfKflRt-134" value="" style="group" vertex="1" connectable="0" parent="fUInM-q33QLJyEfKflRt-122">
          <mxGeometry x="340" y="60" width="350" height="100" as="geometry" />
        </mxCell>
        <mxCell id="fUInM-q33QLJyEfKflRt-129" style="edgeStyle=orthogonalEdgeStyle;rounded=0;orthogonalLoop=1;jettySize=auto;html=1;entryX=0.5;entryY=0;entryDx=0;entryDy=0;dashed=1;" edge="1" parent="fUInM-q33QLJyEfKflRt-134" source="fUInM-q33QLJyEfKflRt-124" target="fUInM-q33QLJyEfKflRt-127">
          <mxGeometry relative="1" as="geometry" />
        </mxCell>
        <mxCell id="fUInM-q33QLJyEfKflRt-131" style="edgeStyle=orthogonalEdgeStyle;rounded=0;orthogonalLoop=1;jettySize=auto;html=1;entryX=0.5;entryY=0;entryDx=0;entryDy=0;dashed=1;" edge="1" parent="fUInM-q33QLJyEfKflRt-134" source="fUInM-q33QLJyEfKflRt-124" target="fUInM-q33QLJyEfKflRt-128">
          <mxGeometry relative="1" as="geometry">
            <mxPoint x="260" y="50" as="targetPoint" />
          </mxGeometry>
        </mxCell>
        <mxCell id="fUInM-q33QLJyEfKflRt-124" value="Register" style="ellipse;whiteSpace=wrap;html=1;" vertex="1" parent="fUInM-q33QLJyEfKflRt-134">
          <mxGeometry x="135" width="80" height="40" as="geometry" />
        </mxCell>
        <mxCell id="fUInM-q33QLJyEfKflRt-127" value="Register as user" style="ellipse;whiteSpace=wrap;html=1;" vertex="1" parent="fUInM-q33QLJyEfKflRt-134">
          <mxGeometry x="50" y="60" width="80" height="40" as="geometry" />
        </mxCell>
        <mxCell id="fUInM-q33QLJyEfKflRt-128" value="Register as business" style="ellipse;whiteSpace=wrap;html=1;" vertex="1" parent="fUInM-q33QLJyEfKflRt-134">
          <mxGeometry x="221" y="60" width="89" height="40" as="geometry" />
        </mxCell>
        <mxCell id="fUInM-q33QLJyEfKflRt-132" value="&amp;lt;&amp;lt;include&amp;gt;&amp;gt;" style="text;html=1;align=center;verticalAlign=middle;resizable=0;points=[];autosize=1;strokeColor=none;fillColor=none;" vertex="1" parent="fUInM-q33QLJyEfKflRt-134">
          <mxGeometry y="20" width="90" height="30" as="geometry" />
        </mxCell>
        <mxCell id="fUInM-q33QLJyEfKflRt-133" value="&amp;lt;&amp;lt;include&amp;gt;&amp;gt;" style="text;html=1;align=center;verticalAlign=middle;resizable=0;points=[];autosize=1;strokeColor=none;fillColor=none;" vertex="1" parent="fUInM-q33QLJyEfKflRt-134">
          <mxGeometry x="260" y="20" width="90" height="30" as="geometry" />
        </mxCell>
        <mxCell id="fUInM-q33QLJyEfKflRt-138" value="Login" style="ellipse;whiteSpace=wrap;html=1;" vertex="1" parent="fUInM-q33QLJyEfKflRt-122">
          <mxGeometry x="514.12" y="278" width="70" height="40" as="geometry" />
        </mxCell>
        <mxCell id="fUInM-q33QLJyEfKflRt-63" value="" style="group" vertex="1" connectable="0" parent="fUInM-q33QLJyEfKflRt-122">
          <mxGeometry x="221" y="808" width="635" height="330" as="geometry" />
        </mxCell>
        <mxCell id="fUInM-q33QLJyEfKflRt-22" style="edgeStyle=orthogonalEdgeStyle;rounded=0;orthogonalLoop=1;jettySize=auto;html=1;exitX=0;exitY=1;exitDx=0;exitDy=0;entryX=0.5;entryY=0;entryDx=0;entryDy=0;dashed=1;" edge="1" parent="fUInM-q33QLJyEfKflRt-63" source="fUInM-q33QLJyEfKflRt-28" target="fUInM-q33QLJyEfKflRt-33">
          <mxGeometry relative="1" as="geometry" />
        </mxCell>
        <mxCell id="fUInM-q33QLJyEfKflRt-23" style="edgeStyle=orthogonalEdgeStyle;rounded=0;orthogonalLoop=1;jettySize=auto;html=1;dashed=1;" edge="1" parent="fUInM-q33QLJyEfKflRt-63" source="fUInM-q33QLJyEfKflRt-28" target="fUInM-q33QLJyEfKflRt-30">
          <mxGeometry relative="1" as="geometry" />
        </mxCell>
        <mxCell id="fUInM-q33QLJyEfKflRt-24" style="edgeStyle=orthogonalEdgeStyle;rounded=0;orthogonalLoop=1;jettySize=auto;html=1;dashed=1;" edge="1" parent="fUInM-q33QLJyEfKflRt-63" source="fUInM-q33QLJyEfKflRt-28">
          <mxGeometry relative="1" as="geometry">
            <mxPoint x="578.75" y="110" as="targetPoint" />
          </mxGeometry>
        </mxCell>
        <mxCell id="fUInM-q33QLJyEfKflRt-25" style="edgeStyle=orthogonalEdgeStyle;rounded=0;orthogonalLoop=1;jettySize=auto;html=1;entryX=0.5;entryY=0;entryDx=0;entryDy=0;dashed=1;" edge="1" parent="fUInM-q33QLJyEfKflRt-63" source="fUInM-q33QLJyEfKflRt-28" target="fUInM-q33QLJyEfKflRt-29">
          <mxGeometry relative="1" as="geometry">
            <Array as="points">
              <mxPoint x="290" y="90" />
              <mxPoint x="186" y="90" />
            </Array>
          </mxGeometry>
        </mxCell>
        <mxCell id="fUInM-q33QLJyEfKflRt-26" style="edgeStyle=orthogonalEdgeStyle;rounded=0;orthogonalLoop=1;jettySize=auto;html=1;exitX=1;exitY=1;exitDx=0;exitDy=0;entryX=0.5;entryY=0;entryDx=0;entryDy=0;dashed=1;" edge="1" parent="fUInM-q33QLJyEfKflRt-63" source="fUInM-q33QLJyEfKflRt-28" target="fUInM-q33QLJyEfKflRt-31">
          <mxGeometry relative="1" as="geometry">
            <Array as="points">
              <mxPoint x="369" y="90" />
              <mxPoint x="454" y="90" />
            </Array>
          </mxGeometry>
        </mxCell>
        <mxCell id="fUInM-q33QLJyEfKflRt-27" style="edgeStyle=orthogonalEdgeStyle;rounded=0;orthogonalLoop=1;jettySize=auto;html=1;entryX=0.5;entryY=0;entryDx=0;entryDy=0;dashed=1;" edge="1" parent="fUInM-q33QLJyEfKflRt-63" source="fUInM-q33QLJyEfKflRt-28" target="fUInM-q33QLJyEfKflRt-34">
          <mxGeometry relative="1" as="geometry">
            <Array as="points">
              <mxPoint y="40" />
              <mxPoint y="250" />
              <mxPoint x="320" y="250" />
            </Array>
            <mxPoint x="210" y="30" as="sourcePoint" />
          </mxGeometry>
        </mxCell>
        <mxCell id="fUInM-q33QLJyEfKflRt-28" value="Make Reservation" style="ellipse;whiteSpace=wrap;html=1;" vertex="1" parent="fUInM-q33QLJyEfKflRt-63">
          <mxGeometry x="251.25" y="20" width="137.5" height="50" as="geometry" />
        </mxCell>
        <mxCell id="fUInM-q33QLJyEfKflRt-29" value="Select no. of guests&amp;nbsp;&amp;nbsp;" style="ellipse;whiteSpace=wrap;html=1;" vertex="1" parent="fUInM-q33QLJyEfKflRt-63">
          <mxGeometry x="130" y="160" width="112.5" height="40" as="geometry" />
        </mxCell>
        <mxCell id="fUInM-q33QLJyEfKflRt-30" value="Choose seating lounge" style="ellipse;whiteSpace=wrap;html=1;" vertex="1" parent="fUInM-q33QLJyEfKflRt-63">
          <mxGeometry x="263.75" y="110" width="112.5" height="40" as="geometry" />
        </mxCell>
        <mxCell id="fUInM-q33QLJyEfKflRt-31" value="Choose food and beverage" style="ellipse;whiteSpace=wrap;html=1;" vertex="1" parent="fUInM-q33QLJyEfKflRt-63">
          <mxGeometry x="397.5" y="160" width="112.5" height="40" as="geometry" />
        </mxCell>
        <mxCell id="fUInM-q33QLJyEfKflRt-32" value="Create special request" style="ellipse;whiteSpace=wrap;html=1;" vertex="1" parent="fUInM-q33QLJyEfKflRt-63">
          <mxGeometry x="522.5" y="107" width="112.5" height="40" as="geometry" />
        </mxCell>
        <mxCell id="fUInM-q33QLJyEfKflRt-33" value="Select time" style="ellipse;whiteSpace=wrap;html=1;" vertex="1" parent="fUInM-q33QLJyEfKflRt-63">
          <mxGeometry x="10" y="110" width="112.5" height="40" as="geometry" />
        </mxCell>
        <mxCell id="fUInM-q33QLJyEfKflRt-34" value="Submit Review" style="ellipse;whiteSpace=wrap;html=1;" vertex="1" parent="fUInM-q33QLJyEfKflRt-63">
          <mxGeometry x="250.63" y="280" width="138.75" height="50" as="geometry" />
        </mxCell>
        <mxCell id="fUInM-q33QLJyEfKflRt-42" value="&amp;lt;&amp;lt;include&amp;gt;&amp;gt;" style="text;html=1;align=center;verticalAlign=middle;resizable=0;points=[];autosize=1;strokeColor=none;fillColor=none;" vertex="1" parent="fUInM-q33QLJyEfKflRt-63">
          <mxGeometry x="88.75" y="60" width="90" height="30" as="geometry" />
        </mxCell>
        <mxCell id="fUInM-q33QLJyEfKflRt-43" value="&amp;lt;&amp;lt;include&amp;gt;&amp;gt;" style="text;html=1;align=center;verticalAlign=middle;resizable=0;points=[];autosize=1;strokeColor=none;fillColor=none;" vertex="1" parent="fUInM-q33QLJyEfKflRt-63">
          <mxGeometry x="178.75" y="90" width="90" height="30" as="geometry" />
        </mxCell>
        <mxCell id="fUInM-q33QLJyEfKflRt-44" value="&lt;div style=&quot;line-height: 50%;&quot;&gt;&amp;lt;&amp;lt;include&amp;gt;&amp;gt;&lt;/div&gt;" style="text;html=1;align=center;verticalAlign=middle;resizable=0;points=[];autosize=1;strokeColor=none;fillColor=none;strokeWidth=1;" vertex="1" parent="fUInM-q33QLJyEfKflRt-63">
          <mxGeometry x="314" y="90" width="90" height="20" as="geometry" />
        </mxCell>
        <mxCell id="fUInM-q33QLJyEfKflRt-45" value="&lt;div style=&quot;line-height: 50%;&quot;&gt;&amp;lt;&amp;lt;include&amp;gt;&amp;gt;&lt;/div&gt;" style="text;html=1;align=center;verticalAlign=middle;resizable=0;points=[];autosize=1;strokeColor=none;fillColor=none;strokeWidth=1;" vertex="1" parent="fUInM-q33QLJyEfKflRt-63">
          <mxGeometry x="388.75" y="70" width="90" height="20" as="geometry" />
        </mxCell>
        <mxCell id="fUInM-q33QLJyEfKflRt-46" value="&lt;div style=&quot;line-height: 50%;&quot;&gt;&amp;lt;&amp;lt;include&amp;gt;&amp;gt;&lt;/div&gt;" style="text;html=1;align=center;verticalAlign=middle;resizable=0;points=[];autosize=1;strokeColor=none;fillColor=none;strokeWidth=1;" vertex="1" parent="fUInM-q33QLJyEfKflRt-63">
          <mxGeometry x="440" y="20" width="90" height="20" as="geometry" />
        </mxCell>
        <mxCell id="fUInM-q33QLJyEfKflRt-47" value="&lt;div style=&quot;line-height: 50%;&quot;&gt;&amp;lt;&amp;lt;extend&amp;gt;&amp;gt;&lt;/div&gt;" style="text;html=1;align=center;verticalAlign=middle;resizable=0;points=[];autosize=1;strokeColor=none;fillColor=none;strokeWidth=1;" vertex="1" parent="fUInM-q33QLJyEfKflRt-63">
          <mxGeometry x="150" y="230" width="90" height="20" as="geometry" />
        </mxCell>
        <mxCell id="fUInM-q33QLJyEfKflRt-204" value="" style="group" vertex="1" connectable="0" parent="fUInM-q33QLJyEfKflRt-122">
          <mxGeometry x="200.11" y="528" width="676.7800000000001" height="209" as="geometry" />
        </mxCell>
        <mxCell id="fUInM-q33QLJyEfKflRt-201" value="" style="group" vertex="1" connectable="0" parent="fUInM-q33QLJyEfKflRt-204">
          <mxGeometry width="676.7800000000001" height="200" as="geometry" />
        </mxCell>
        <mxCell id="fUInM-q33QLJyEfKflRt-177" style="edgeStyle=orthogonalEdgeStyle;rounded=0;orthogonalLoop=1;jettySize=auto;html=1;exitX=0;exitY=0.5;exitDx=0;exitDy=0;dashed=1;" edge="1" parent="fUInM-q33QLJyEfKflRt-201">
          <mxGeometry relative="1" as="geometry">
            <Array as="points">
              <mxPoint x="274.13" y="40" />
              <mxPoint x="59.129999999999995" y="40" />
              <mxPoint x="59.129999999999995" y="100" />
              <mxPoint x="57.129999999999995" y="100" />
            </Array>
            <mxPoint x="57" y="159" as="targetPoint" />
            <mxPoint x="274.53000000000156" y="25" as="sourcePoint" />
          </mxGeometry>
        </mxCell>
        <mxCell id="fUInM-q33QLJyEfKflRt-178" style="edgeStyle=orthogonalEdgeStyle;rounded=0;orthogonalLoop=1;jettySize=auto;html=1;exitX=0;exitY=1;exitDx=0;exitDy=0;dashed=1;" edge="1" parent="fUInM-q33QLJyEfKflRt-201" source="fUInM-q33QLJyEfKflRt-183" target="fUInM-q33QLJyEfKflRt-184">
          <mxGeometry relative="1" as="geometry">
            <Array as="points">
              <mxPoint x="290.5300000000001" y="60" />
              <mxPoint x="156.5300000000001" y="60" />
            </Array>
          </mxGeometry>
        </mxCell>
        <mxCell id="fUInM-q33QLJyEfKflRt-179" style="edgeStyle=orthogonalEdgeStyle;rounded=0;orthogonalLoop=1;jettySize=auto;html=1;entryX=0.5;entryY=0;entryDx=0;entryDy=0;dashed=1;" edge="1" parent="fUInM-q33QLJyEfKflRt-201" source="fUInM-q33QLJyEfKflRt-183" target="fUInM-q33QLJyEfKflRt-185">
          <mxGeometry relative="1" as="geometry" />
        </mxCell>
        <mxCell id="fUInM-q33QLJyEfKflRt-180" style="edgeStyle=orthogonalEdgeStyle;rounded=0;orthogonalLoop=1;jettySize=auto;html=1;entryX=0.5;entryY=0;entryDx=0;entryDy=0;dashed=1;exitX=0.372;exitY=1.071;exitDx=0;exitDy=0;exitPerimeter=0;" edge="1" parent="fUInM-q33QLJyEfKflRt-201" source="fUInM-q33QLJyEfKflRt-183" target="fUInM-q33QLJyEfKflRt-187">
          <mxGeometry relative="1" as="geometry" />
        </mxCell>
        <mxCell id="fUInM-q33QLJyEfKflRt-181" style="edgeStyle=orthogonalEdgeStyle;rounded=0;orthogonalLoop=1;jettySize=auto;html=1;exitX=1;exitY=1;exitDx=0;exitDy=0;entryX=0.5;entryY=0;entryDx=0;entryDy=0;dashed=1;" edge="1" parent="fUInM-q33QLJyEfKflRt-201" source="fUInM-q33QLJyEfKflRt-183" target="fUInM-q33QLJyEfKflRt-188">
          <mxGeometry relative="1" as="geometry">
            <Array as="points">
              <mxPoint x="388.5300000000001" y="70" />
              <mxPoint x="507.5300000000001" y="70" />
            </Array>
          </mxGeometry>
        </mxCell>
        <mxCell id="fUInM-q33QLJyEfKflRt-182" style="edgeStyle=orthogonalEdgeStyle;rounded=0;orthogonalLoop=1;jettySize=auto;html=1;entryX=0.5;entryY=0;entryDx=0;entryDy=0;dashed=1;" edge="1" parent="fUInM-q33QLJyEfKflRt-201" source="fUInM-q33QLJyEfKflRt-183">
          <mxGeometry relative="1" as="geometry">
            <mxPoint x="620.5300000000001" y="100" as="targetPoint" />
          </mxGeometry>
        </mxCell>
        <mxCell id="fUInM-q33QLJyEfKflRt-183" value="Browser Restaurant Profile" style="ellipse;whiteSpace=wrap;html=1;" vertex="1" parent="fUInM-q33QLJyEfKflRt-201">
          <mxGeometry x="270.5300000000001" width="137.5" height="50" as="geometry" />
        </mxCell>
        <mxCell id="fUInM-q33QLJyEfKflRt-184" value="View Photos" style="ellipse;whiteSpace=wrap;html=1;" vertex="1" parent="fUInM-q33QLJyEfKflRt-201">
          <mxGeometry x="100.53000000000009" y="100" width="112.5" height="40" as="geometry" />
        </mxCell>
        <mxCell id="fUInM-q33QLJyEfKflRt-185" value="View Description" style="ellipse;whiteSpace=wrap;html=1;" vertex="1" parent="fUInM-q33QLJyEfKflRt-201">
          <mxGeometry x="318.0300000000001" y="100" width="112.5" height="40" as="geometry" />
        </mxCell>
        <mxCell id="fUInM-q33QLJyEfKflRt-186" value="View Menu" style="ellipse;whiteSpace=wrap;html=1;" vertex="1" parent="fUInM-q33QLJyEfKflRt-201">
          <mxGeometry x="564.2800000000001" y="97" width="112.5" height="40" as="geometry" />
        </mxCell>
        <mxCell id="fUInM-q33QLJyEfKflRt-187" value="View Payment Methods" style="ellipse;whiteSpace=wrap;html=1;" vertex="1" parent="fUInM-q33QLJyEfKflRt-201">
          <mxGeometry x="204.2800000000001" y="150" width="113.75" height="50" as="geometry" />
        </mxCell>
        <mxCell id="fUInM-q33QLJyEfKflRt-188" value="View Available Seats&amp;nbsp;" style="ellipse;whiteSpace=wrap;html=1;" vertex="1" parent="fUInM-q33QLJyEfKflRt-201">
          <mxGeometry x="450.5300000000001" y="140" width="113.75" height="50" as="geometry" />
        </mxCell>
        <mxCell id="fUInM-q33QLJyEfKflRt-193" value="&amp;lt;&amp;lt;include&amp;gt;&amp;gt;" style="text;html=1;align=center;verticalAlign=middle;resizable=0;points=[];autosize=1;strokeColor=none;fillColor=none;" vertex="1" parent="fUInM-q33QLJyEfKflRt-201">
          <mxGeometry x="84.28000000000009" y="37" width="90" height="30" as="geometry" />
        </mxCell>
        <mxCell id="fUInM-q33QLJyEfKflRt-194" value="&amp;lt;&amp;lt;include&amp;gt;&amp;gt;" style="text;html=1;align=center;verticalAlign=middle;resizable=0;points=[];autosize=1;strokeColor=none;fillColor=none;" vertex="1" parent="fUInM-q33QLJyEfKflRt-201">
          <mxGeometry x="151.7800000000001" y="60" width="90" height="30" as="geometry" />
        </mxCell>
        <mxCell id="fUInM-q33QLJyEfKflRt-195" value="&amp;lt;&amp;lt;include&amp;gt;&amp;gt;" style="text;html=1;align=center;verticalAlign=middle;resizable=0;points=[];autosize=1;strokeColor=none;fillColor=none;" vertex="1" parent="fUInM-q33QLJyEfKflRt-201">
          <mxGeometry x="234.5300000000001" y="75" width="90" height="30" as="geometry" />
        </mxCell>
        <mxCell id="fUInM-q33QLJyEfKflRt-196" value="&amp;lt;&amp;lt;include&amp;gt;&amp;gt;" style="text;html=1;align=center;verticalAlign=middle;resizable=0;points=[];autosize=1;strokeColor=none;fillColor=none;" vertex="1" parent="fUInM-q33QLJyEfKflRt-201">
          <mxGeometry x="364.5300000000001" y="70" width="90" height="30" as="geometry" />
        </mxCell>
        <mxCell id="fUInM-q33QLJyEfKflRt-197" value="&amp;lt;&amp;lt;include&amp;gt;&amp;gt;" style="text;html=1;align=center;verticalAlign=middle;resizable=0;points=[];autosize=1;strokeColor=none;fillColor=none;" vertex="1" parent="fUInM-q33QLJyEfKflRt-201">
          <mxGeometry x="412.15" y="71" width="90" height="30" as="geometry" />
        </mxCell>
        <mxCell id="fUInM-q33QLJyEfKflRt-198" value="&amp;lt;&amp;lt;include&amp;gt;&amp;gt;" style="text;html=1;align=center;verticalAlign=middle;resizable=0;points=[];autosize=1;strokeColor=none;fillColor=none;" vertex="1" parent="fUInM-q33QLJyEfKflRt-201">
          <mxGeometry x="449.15" y="25" width="90" height="30" as="geometry" />
        </mxCell>
        <mxCell id="fUInM-q33QLJyEfKflRt-199" value="View Ratings" style="ellipse;whiteSpace=wrap;html=1;" vertex="1" parent="fUInM-q33QLJyEfKflRt-204">
          <mxGeometry x="2" y="159" width="112.5" height="50" as="geometry" />
        </mxCell>
        <mxCell id="fUInM-q33QLJyEfKflRt-205" value="" style="group" vertex="1" connectable="0" parent="fUInM-q33QLJyEfKflRt-122">
          <mxGeometry x="301.0000000000001" y="348" width="496.25" height="137" as="geometry" />
        </mxCell>
        <mxCell id="fUInM-q33QLJyEfKflRt-171" style="edgeStyle=orthogonalEdgeStyle;rounded=0;orthogonalLoop=1;jettySize=auto;html=1;exitX=0;exitY=1;exitDx=0;exitDy=0;entryX=0.5;entryY=0;entryDx=0;entryDy=0;dashed=1;" edge="1" parent="fUInM-q33QLJyEfKflRt-205" source="fUInM-q33QLJyEfKflRt-173" target="fUInM-q33QLJyEfKflRt-174">
          <mxGeometry relative="1" as="geometry" />
        </mxCell>
        <mxCell id="fUInM-q33QLJyEfKflRt-172" style="edgeStyle=orthogonalEdgeStyle;rounded=0;orthogonalLoop=1;jettySize=auto;html=1;exitX=1;exitY=1;exitDx=0;exitDy=0;entryX=0.5;entryY=0;entryDx=0;entryDy=0;dashed=1;" edge="1" parent="fUInM-q33QLJyEfKflRt-205" source="fUInM-q33QLJyEfKflRt-173" target="fUInM-q33QLJyEfKflRt-176">
          <mxGeometry relative="1" as="geometry" />
        </mxCell>
        <mxCell id="fUInM-q33QLJyEfKflRt-173" value="Search Restaurant" style="ellipse;whiteSpace=wrap;html=1;" vertex="1" parent="fUInM-q33QLJyEfKflRt-205">
          <mxGeometry x="195" y="10" width="120" height="40" as="geometry" />
        </mxCell>
        <mxCell id="fUInM-q33QLJyEfKflRt-174" value="Search By Name" style="ellipse;whiteSpace=wrap;html=1;" vertex="1" parent="fUInM-q33QLJyEfKflRt-205">
          <mxGeometry y="87" width="120" height="40" as="geometry" />
        </mxCell>
        <mxCell id="fUInM-q33QLJyEfKflRt-175" value="Search By Cuisine" style="ellipse;whiteSpace=wrap;html=1;" vertex="1" parent="fUInM-q33QLJyEfKflRt-205">
          <mxGeometry x="195" y="97" width="120" height="40" as="geometry" />
        </mxCell>
        <mxCell id="fUInM-q33QLJyEfKflRt-176" value="Browse By Country/City" style="ellipse;whiteSpace=wrap;html=1;" vertex="1" parent="fUInM-q33QLJyEfKflRt-205">
          <mxGeometry x="376.25" y="77" width="120" height="40" as="geometry" />
        </mxCell>
        <mxCell id="fUInM-q33QLJyEfKflRt-189" value="&amp;lt;&amp;lt;include&amp;gt;&amp;gt;" style="text;html=1;align=center;verticalAlign=middle;resizable=0;points=[];autosize=1;strokeColor=none;fillColor=none;" vertex="1" parent="fUInM-q33QLJyEfKflRt-205">
          <mxGeometry x="60.63" y="37" width="90" height="30" as="geometry" />
        </mxCell>
        <mxCell id="fUInM-q33QLJyEfKflRt-190" style="edgeStyle=orthogonalEdgeStyle;rounded=0;orthogonalLoop=1;jettySize=auto;html=1;exitX=0.5;exitY=1;exitDx=0;exitDy=0;entryX=0.5;entryY=0;entryDx=0;entryDy=0;dashed=1;" edge="1" parent="fUInM-q33QLJyEfKflRt-205" source="fUInM-q33QLJyEfKflRt-173" target="fUInM-q33QLJyEfKflRt-175">
          <mxGeometry relative="1" as="geometry">
            <mxPoint x="214.25" y="14" as="sourcePoint" />
            <mxPoint x="70.25" y="60" as="targetPoint" />
          </mxGeometry>
        </mxCell>
        <mxCell id="fUInM-q33QLJyEfKflRt-191" value="&amp;lt;&amp;lt;include&amp;gt;&amp;gt;" style="text;html=1;align=center;verticalAlign=middle;resizable=0;points=[];autosize=1;strokeColor=none;fillColor=none;" vertex="1" parent="fUInM-q33QLJyEfKflRt-205">
          <mxGeometry x="170.63" y="67" width="90" height="30" as="geometry" />
        </mxCell>
        <mxCell id="fUInM-q33QLJyEfKflRt-192" value="&amp;lt;&amp;lt;include&amp;gt;&amp;gt;" style="text;html=1;align=center;verticalAlign=middle;resizable=0;points=[];autosize=1;strokeColor=none;fillColor=none;" vertex="1" parent="fUInM-q33QLJyEfKflRt-205">
          <mxGeometry x="350.63" y="20" width="90" height="30" as="geometry" />
        </mxCell>
        <mxCell id="fUInM-q33QLJyEfKflRt-325" style="edgeStyle=orthogonalEdgeStyle;rounded=0;orthogonalLoop=1;jettySize=auto;html=1;exitX=0;exitY=1;exitDx=0;exitDy=0;entryX=0.5;entryY=0;entryDx=0;entryDy=0;dashed=1;" edge="1" parent="fUInM-q33QLJyEfKflRt-122" source="fUInM-q33QLJyEfKflRt-328" target="fUInM-q33QLJyEfKflRt-329">
          <mxGeometry relative="1" as="geometry" />
        </mxCell>
        <mxCell id="fUInM-q33QLJyEfKflRt-326" style="edgeStyle=orthogonalEdgeStyle;rounded=0;orthogonalLoop=1;jettySize=auto;html=1;exitX=1;exitY=1;exitDx=0;exitDy=0;entryX=0.5;entryY=0;entryDx=0;entryDy=0;dashed=1;" edge="1" parent="fUInM-q33QLJyEfKflRt-122" source="fUInM-q33QLJyEfKflRt-328" target="fUInM-q33QLJyEfKflRt-331">
          <mxGeometry relative="1" as="geometry" />
        </mxCell>
        <mxCell id="fUInM-q33QLJyEfKflRt-327" style="edgeStyle=orthogonalEdgeStyle;rounded=0;orthogonalLoop=1;jettySize=auto;html=1;entryX=0.5;entryY=0;entryDx=0;entryDy=0;dashed=1;" edge="1" parent="fUInM-q33QLJyEfKflRt-122" source="fUInM-q33QLJyEfKflRt-328" target="fUInM-q33QLJyEfKflRt-336">
          <mxGeometry relative="1" as="geometry" />
        </mxCell>
        <mxCell id="fUInM-q33QLJyEfKflRt-328" value="Manage Restaurant Profile" style="ellipse;whiteSpace=wrap;html=1;" vertex="1" parent="fUInM-q33QLJyEfKflRt-122">
          <mxGeometry x="472.25" y="1198" width="130" height="53" as="geometry" />
        </mxCell>
        <mxCell id="fUInM-q33QLJyEfKflRt-329" value="Add Photo" style="ellipse;whiteSpace=wrap;html=1;" vertex="1" parent="fUInM-q33QLJyEfKflRt-122">
          <mxGeometry x="238.5" y="1291" width="120" height="40" as="geometry" />
        </mxCell>
        <mxCell id="fUInM-q33QLJyEfKflRt-330" value="Add Description" style="ellipse;whiteSpace=wrap;html=1;" vertex="1" parent="fUInM-q33QLJyEfKflRt-122">
          <mxGeometry x="387.25" y="1291" width="120" height="40" as="geometry" />
        </mxCell>
        <mxCell id="fUInM-q33QLJyEfKflRt-331" value="Set Cuisine and Payment Option" style="ellipse;whiteSpace=wrap;html=1;" vertex="1" parent="fUInM-q33QLJyEfKflRt-122">
          <mxGeometry x="587.25" y="1291" width="120" height="40" as="geometry" />
        </mxCell>
        <mxCell id="fUInM-q33QLJyEfKflRt-332" value="&amp;lt;&amp;lt;include&amp;gt;&amp;gt;" style="text;html=1;align=center;verticalAlign=middle;resizable=0;points=[];autosize=1;strokeColor=none;fillColor=none;" vertex="1" parent="fUInM-q33QLJyEfKflRt-122">
          <mxGeometry x="347.25" y="1241" width="90" height="30" as="geometry" />
        </mxCell>
        <mxCell id="fUInM-q33QLJyEfKflRt-333" style="edgeStyle=orthogonalEdgeStyle;rounded=0;orthogonalLoop=1;jettySize=auto;html=1;exitX=0.5;exitY=1;exitDx=0;exitDy=0;entryX=0.5;entryY=0;entryDx=0;entryDy=0;dashed=1;" edge="1" parent="fUInM-q33QLJyEfKflRt-122" source="fUInM-q33QLJyEfKflRt-328" target="fUInM-q33QLJyEfKflRt-330">
          <mxGeometry relative="1" as="geometry">
            <mxPoint x="505.25" y="1255" as="sourcePoint" />
            <mxPoint x="361.25" y="1301" as="targetPoint" />
          </mxGeometry>
        </mxCell>
        <mxCell id="fUInM-q33QLJyEfKflRt-334" value="&amp;lt;&amp;lt;include&amp;gt;&amp;gt;" style="text;html=1;align=center;verticalAlign=middle;resizable=0;points=[];autosize=1;strokeColor=none;fillColor=none;" vertex="1" parent="fUInM-q33QLJyEfKflRt-122">
          <mxGeometry x="452.25" y="1271" width="90" height="30" as="geometry" />
        </mxCell>
        <mxCell id="fUInM-q33QLJyEfKflRt-335" value="&amp;lt;&amp;lt;include&amp;gt;&amp;gt;" style="text;html=1;align=center;verticalAlign=middle;resizable=0;points=[];autosize=1;strokeColor=none;fillColor=none;" vertex="1" parent="fUInM-q33QLJyEfKflRt-122">
          <mxGeometry x="577.25" y="1241" width="90" height="30" as="geometry" />
        </mxCell>
        <mxCell id="fUInM-q33QLJyEfKflRt-336" value="Update seat availability" style="ellipse;whiteSpace=wrap;html=1;" vertex="1" parent="fUInM-q33QLJyEfKflRt-122">
          <mxGeometry x="739.75" y="1291" width="120" height="40" as="geometry" />
        </mxCell>
        <mxCell id="fUInM-q33QLJyEfKflRt-337" value="&amp;lt;&amp;lt;include&amp;gt;&amp;gt;" style="text;html=1;align=center;verticalAlign=middle;resizable=0;points=[];autosize=1;strokeColor=none;fillColor=none;" vertex="1" parent="fUInM-q33QLJyEfKflRt-122">
          <mxGeometry x="687.25" y="1221" width="90" height="30" as="geometry" />
        </mxCell>
        <mxCell id="fUInM-q33QLJyEfKflRt-338" style="edgeStyle=orthogonalEdgeStyle;rounded=0;orthogonalLoop=1;jettySize=auto;html=1;entryX=0.5;entryY=0;entryDx=0;entryDy=0;dashed=1;exitX=0.695;exitY=1.004;exitDx=0;exitDy=0;exitPerimeter=0;" edge="1" parent="fUInM-q33QLJyEfKflRt-122" source="fUInM-q33QLJyEfKflRt-340" target="fUInM-q33QLJyEfKflRt-341">
          <mxGeometry relative="1" as="geometry">
            <Array as="points">
              <mxPoint x="569.5" y="1455" />
              <mxPoint x="717.5" y="1455" />
            </Array>
          </mxGeometry>
        </mxCell>
        <mxCell id="fUInM-q33QLJyEfKflRt-339" style="edgeStyle=orthogonalEdgeStyle;rounded=0;orthogonalLoop=1;jettySize=auto;html=1;entryX=0.5;entryY=0;entryDx=0;entryDy=0;dashed=1;exitX=0.372;exitY=1.071;exitDx=0;exitDy=0;exitPerimeter=0;" edge="1" parent="fUInM-q33QLJyEfKflRt-122" source="fUInM-q33QLJyEfKflRt-340" target="fUInM-q33QLJyEfKflRt-342">
          <mxGeometry relative="1" as="geometry">
            <Array as="points">
              <mxPoint x="524.5" y="1455" />
              <mxPoint x="368.5" y="1455" />
            </Array>
          </mxGeometry>
        </mxCell>
        <mxCell id="fUInM-q33QLJyEfKflRt-340" value="Manage menu" style="ellipse;whiteSpace=wrap;html=1;" vertex="1" parent="fUInM-q33QLJyEfKflRt-122">
          <mxGeometry x="473.5" y="1398" width="137.5" height="50" as="geometry" />
        </mxCell>
        <mxCell id="fUInM-q33QLJyEfKflRt-341" value="Set Prices" style="ellipse;whiteSpace=wrap;html=1;" vertex="1" parent="fUInM-q33QLJyEfKflRt-122">
          <mxGeometry x="661" y="1503" width="112.5" height="40" as="geometry" />
        </mxCell>
        <mxCell id="fUInM-q33QLJyEfKflRt-342" value="Add/Update Food &amp;amp; Beverage Items" style="ellipse;whiteSpace=wrap;html=1;" vertex="1" parent="fUInM-q33QLJyEfKflRt-122">
          <mxGeometry x="303.5" y="1493" width="130" height="50" as="geometry" />
        </mxCell>
        <mxCell id="fUInM-q33QLJyEfKflRt-343" value="&amp;lt;&amp;lt;include&amp;gt;&amp;gt;" style="text;html=1;align=center;verticalAlign=middle;resizable=0;points=[];autosize=1;strokeColor=none;fillColor=none;" vertex="1" parent="fUInM-q33QLJyEfKflRt-122">
          <mxGeometry x="374.1300000000001" y="1455" width="90" height="30" as="geometry" />
        </mxCell>
        <mxCell id="fUInM-q33QLJyEfKflRt-344" value="&amp;lt;&amp;lt;include&amp;gt;&amp;gt;" style="text;html=1;align=center;verticalAlign=middle;resizable=0;points=[];autosize=1;strokeColor=none;fillColor=none;" vertex="1" parent="fUInM-q33QLJyEfKflRt-122">
          <mxGeometry x="573.5" y="1455" width="90" height="30" as="geometry" />
        </mxCell>
        <mxCell id="fUInM-q33QLJyEfKflRt-368" style="edgeStyle=orthogonalEdgeStyle;rounded=0;orthogonalLoop=1;jettySize=auto;html=1;exitX=0;exitY=1;exitDx=0;exitDy=0;entryX=0.5;entryY=0;entryDx=0;entryDy=0;dashed=1;" edge="1" parent="fUInM-q33QLJyEfKflRt-122" source="fUInM-q33QLJyEfKflRt-372" target="fUInM-q33QLJyEfKflRt-375">
          <mxGeometry relative="1" as="geometry" />
        </mxCell>
        <mxCell id="fUInM-q33QLJyEfKflRt-369" style="edgeStyle=orthogonalEdgeStyle;rounded=0;orthogonalLoop=1;jettySize=auto;html=1;dashed=1;" edge="1" parent="fUInM-q33QLJyEfKflRt-122" source="fUInM-q33QLJyEfKflRt-372" target="fUInM-q33QLJyEfKflRt-374">
          <mxGeometry relative="1" as="geometry" />
        </mxCell>
        <mxCell id="fUInM-q33QLJyEfKflRt-370" style="edgeStyle=orthogonalEdgeStyle;rounded=0;orthogonalLoop=1;jettySize=auto;html=1;entryX=0.5;entryY=0;entryDx=0;entryDy=0;dashed=1;exitX=0.5;exitY=1;exitDx=0;exitDy=0;" edge="1" parent="fUInM-q33QLJyEfKflRt-122" source="fUInM-q33QLJyEfKflRt-372" target="fUInM-q33QLJyEfKflRt-373">
          <mxGeometry relative="1" as="geometry">
            <Array as="points">
              <mxPoint x="557.8699999999999" y="1755" />
              <mxPoint x="557.8699999999999" y="1755" />
            </Array>
          </mxGeometry>
        </mxCell>
        <mxCell id="fUInM-q33QLJyEfKflRt-371" style="edgeStyle=orthogonalEdgeStyle;rounded=0;orthogonalLoop=1;jettySize=auto;html=1;entryX=0.5;entryY=0;entryDx=0;entryDy=0;dashed=1;" edge="1" parent="fUInM-q33QLJyEfKflRt-122" source="fUInM-q33QLJyEfKflRt-372" target="fUInM-q33QLJyEfKflRt-376">
          <mxGeometry relative="1" as="geometry">
            <Array as="points">
              <mxPoint x="557.8699999999999" y="1608" />
              <mxPoint x="237.8699999999999" y="1608" />
              <mxPoint x="237.8699999999999" y="1858" />
              <mxPoint x="557.8699999999999" y="1858" />
            </Array>
          </mxGeometry>
        </mxCell>
        <mxCell id="fUInM-q33QLJyEfKflRt-372" value="View Reservations" style="ellipse;whiteSpace=wrap;html=1;" vertex="1" parent="fUInM-q33QLJyEfKflRt-122">
          <mxGeometry x="489.1199999999999" y="1628" width="137.5" height="50" as="geometry" />
        </mxCell>
        <mxCell id="fUInM-q33QLJyEfKflRt-373" value="View Ordered Items" style="ellipse;whiteSpace=wrap;html=1;" vertex="1" parent="fUInM-q33QLJyEfKflRt-122">
          <mxGeometry x="497.8699999999999" y="1763.5" width="120" height="57" as="geometry" />
        </mxCell>
        <mxCell id="fUInM-q33QLJyEfKflRt-374" value="View Special Requests" style="ellipse;whiteSpace=wrap;html=1;" vertex="1" parent="fUInM-q33QLJyEfKflRt-122">
          <mxGeometry x="747.8699999999999" y="1763.5" width="112.5" height="40" as="geometry" />
        </mxCell>
        <mxCell id="fUInM-q33QLJyEfKflRt-375" value="View Guest Count, Lounge Type" style="ellipse;whiteSpace=wrap;html=1;" vertex="1" parent="fUInM-q33QLJyEfKflRt-122">
          <mxGeometry x="249.1199999999999" y="1755" width="130" height="57" as="geometry" />
        </mxCell>
        <mxCell id="fUInM-q33QLJyEfKflRt-376" value="Manage Reviews / Ratings" style="ellipse;whiteSpace=wrap;html=1;" vertex="1" parent="fUInM-q33QLJyEfKflRt-122">
          <mxGeometry x="488.5" y="1888" width="138.75" height="50" as="geometry" />
        </mxCell>
        <mxCell id="fUInM-q33QLJyEfKflRt-377" value="&amp;lt;&amp;lt;include&amp;gt;&amp;gt;" style="text;html=1;align=center;verticalAlign=middle;resizable=0;points=[];autosize=1;strokeColor=none;fillColor=none;" vertex="1" parent="fUInM-q33QLJyEfKflRt-122">
          <mxGeometry x="326.6199999999999" y="1668" width="90" height="30" as="geometry" />
        </mxCell>
        <mxCell id="fUInM-q33QLJyEfKflRt-378" value="&amp;lt;&amp;lt;include&amp;gt;&amp;gt;" style="text;html=1;align=center;verticalAlign=middle;resizable=0;points=[];autosize=1;strokeColor=none;fillColor=none;" vertex="1" parent="fUInM-q33QLJyEfKflRt-122">
          <mxGeometry x="707.8699999999999" y="1648" width="90" height="30" as="geometry" />
        </mxCell>
        <mxCell id="fUInM-q33QLJyEfKflRt-379" value="&lt;div style=&quot;line-height: 50%;&quot;&gt;&amp;lt;&amp;lt;include&amp;gt;&amp;gt;&lt;/div&gt;" style="text;html=1;align=center;verticalAlign=middle;resizable=0;points=[];autosize=1;strokeColor=none;fillColor=none;strokeWidth=1;" vertex="1" parent="fUInM-q33QLJyEfKflRt-122">
          <mxGeometry x="551.8699999999999" y="1708" width="90" height="20" as="geometry" />
        </mxCell>
        <mxCell id="fUInM-q33QLJyEfKflRt-380" value="&lt;div style=&quot;line-height: 50%;&quot;&gt;&amp;lt;&amp;lt;extend&amp;gt;&amp;gt;&lt;/div&gt;" style="text;html=1;align=center;verticalAlign=middle;resizable=0;points=[];autosize=1;strokeColor=none;fillColor=none;strokeWidth=1;" vertex="1" parent="fUInM-q33QLJyEfKflRt-122">
          <mxGeometry x="387.8699999999999" y="1838" width="90" height="20" as="geometry" />
        </mxCell>
        <mxCell id="fUInM-q33QLJyEfKflRt-148" style="edgeStyle=orthogonalEdgeStyle;rounded=0;orthogonalLoop=1;jettySize=auto;html=1;entryX=0.5;entryY=0;entryDx=0;entryDy=0;" edge="1" parent="1" source="fUInM-q33QLJyEfKflRt-123" target="fUInM-q33QLJyEfKflRt-124">
          <mxGeometry relative="1" as="geometry" />
        </mxCell>
        <mxCell id="fUInM-q33QLJyEfKflRt-210" style="edgeStyle=orthogonalEdgeStyle;rounded=0;orthogonalLoop=1;jettySize=auto;html=1;entryX=0;entryY=0.5;entryDx=0;entryDy=0;" edge="1" parent="1" source="fUInM-q33QLJyEfKflRt-123" target="fUInM-q33QLJyEfKflRt-173">
          <mxGeometry relative="1" as="geometry">
            <Array as="points">
              <mxPoint x="1276" y="200" />
              <mxPoint x="1633" y="200" />
              <mxPoint x="1633" y="340" />
            </Array>
          </mxGeometry>
        </mxCell>
        <mxCell id="fUInM-q33QLJyEfKflRt-123" value="New User" style="shape=umlActor;verticalLabelPosition=bottom;verticalAlign=top;html=1;outlineConnect=0;" vertex="1" parent="1">
          <mxGeometry x="1261" y="80" width="30" height="60" as="geometry" />
        </mxCell>
        <mxCell id="fUInM-q33QLJyEfKflRt-149" style="edgeStyle=orthogonalEdgeStyle;rounded=0;orthogonalLoop=1;jettySize=auto;html=1;exitX=0.5;exitY=0.5;exitDx=0;exitDy=0;exitPerimeter=0;entryX=0;entryY=0.5;entryDx=0;entryDy=0;" edge="1" parent="1" source="fUInM-q33QLJyEfKflRt-144" target="fUInM-q33QLJyEfKflRt-138">
          <mxGeometry relative="1" as="geometry">
            <mxPoint x="1990" y="260" as="targetPoint" />
            <Array as="points" />
          </mxGeometry>
        </mxCell>
        <mxCell id="fUInM-q33QLJyEfKflRt-208" style="edgeStyle=orthogonalEdgeStyle;rounded=0;orthogonalLoop=1;jettySize=auto;html=1;entryX=0.5;entryY=0;entryDx=0;entryDy=0;" edge="1" parent="1" source="fUInM-q33QLJyEfKflRt-144" target="fUInM-q33QLJyEfKflRt-173">
          <mxGeometry relative="1" as="geometry">
            <Array as="points">
              <mxPoint x="2035" y="290" />
            </Array>
          </mxGeometry>
        </mxCell>
        <mxCell id="fUInM-q33QLJyEfKflRt-209" style="edgeStyle=orthogonalEdgeStyle;rounded=0;orthogonalLoop=1;jettySize=auto;html=1;exitX=1;exitY=1;exitDx=0;exitDy=0;exitPerimeter=0;entryX=0.5;entryY=0;entryDx=0;entryDy=0;" edge="1" parent="1" source="fUInM-q33QLJyEfKflRt-144" target="fUInM-q33QLJyEfKflRt-183">
          <mxGeometry relative="1" as="geometry">
            <Array as="points">
              <mxPoint x="1275" y="470" />
              <mxPoint x="2018" y="470" />
            </Array>
          </mxGeometry>
        </mxCell>
        <mxCell id="fUInM-q33QLJyEfKflRt-211" style="edgeStyle=orthogonalEdgeStyle;rounded=0;orthogonalLoop=1;jettySize=auto;html=1;" edge="1" parent="1" source="fUInM-q33QLJyEfKflRt-144">
          <mxGeometry relative="1" as="geometry">
            <mxPoint x="2020.0000000000005" y="780" as="targetPoint" />
            <Array as="points">
              <mxPoint x="1260" y="730" />
              <mxPoint x="2020" y="730" />
            </Array>
          </mxGeometry>
        </mxCell>
        <mxCell id="fUInM-q33QLJyEfKflRt-213" style="edgeStyle=orthogonalEdgeStyle;rounded=0;orthogonalLoop=1;jettySize=auto;html=1;entryX=0;entryY=0.5;entryDx=0;entryDy=0;" edge="1" parent="1" source="fUInM-q33QLJyEfKflRt-144" target="fUInM-q33QLJyEfKflRt-34">
          <mxGeometry relative="1" as="geometry">
            <Array as="points">
              <mxPoint x="1260" y="1075" />
            </Array>
          </mxGeometry>
        </mxCell>
        <mxCell id="fUInM-q33QLJyEfKflRt-144" value="&lt;span style=&quot;color: rgba(0, 0, 0, 0); font-family: monospace; font-size: 0px; text-align: start;&quot;&gt;%3CmxGraphModel%3E%3Croot%3E%3CmxCell%20id%3D%220%22%2F%3E%3CmxCell%20id%3D%221%22%20parent%3D%220%22%2F%3E%3CmxCell%20id%3D%222%22%20value%3D%22New%20User%22%20style%3D%22shape%3DumlActor%3BverticalLabelPosition%3Dbottom%3BverticalAlign%3Dtop%3Bhtml%3D1%3BoutlineConnect%3D0%3B%22%20vertex%3D%221%22%20parent%3D%221%22%3E%3CmxGeometry%20x%3D%221261%22%20y%3D%2280%22%20width%3D%2230%22%20height%3D%2260%22%20as%3D%22geometry%22%2F%3E%3C%2FmxCell%3E%3C%2Froot%3E%3C%2FmxGraphModel%3E&lt;/span&gt;User" style="shape=umlActor;verticalLabelPosition=bottom;verticalAlign=top;html=1;outlineConnect=0;" vertex="1" parent="1">
          <mxGeometry x="1245" y="230" width="30" height="60" as="geometry" />
        </mxCell>
        <mxCell id="fUInM-q33QLJyEfKflRt-214" style="edgeStyle=orthogonalEdgeStyle;rounded=0;orthogonalLoop=1;jettySize=auto;html=1;entryX=1;entryY=0.5;entryDx=0;entryDy=0;" edge="1" parent="1" source="fUInM-q33QLJyEfKflRt-147" target="fUInM-q33QLJyEfKflRt-138">
          <mxGeometry relative="1" as="geometry">
            <Array as="points">
              <mxPoint x="2500" y="260" />
              <mxPoint x="2500" y="260" />
            </Array>
          </mxGeometry>
        </mxCell>
        <mxCell id="fUInM-q33QLJyEfKflRt-381" style="edgeStyle=orthogonalEdgeStyle;rounded=0;orthogonalLoop=1;jettySize=auto;html=1;entryX=0.5;entryY=0;entryDx=0;entryDy=0;" edge="1" parent="1" source="fUInM-q33QLJyEfKflRt-147" target="fUInM-q33QLJyEfKflRt-328">
          <mxGeometry relative="1" as="geometry">
            <Array as="points">
              <mxPoint x="2680" y="250" />
              <mxPoint x="2680" y="1130" />
              <mxPoint x="2016" y="1130" />
            </Array>
          </mxGeometry>
        </mxCell>
        <mxCell id="fUInM-q33QLJyEfKflRt-382" style="edgeStyle=orthogonalEdgeStyle;rounded=0;orthogonalLoop=1;jettySize=auto;html=1;" edge="1" parent="1" source="fUInM-q33QLJyEfKflRt-147" target="fUInM-q33QLJyEfKflRt-340">
          <mxGeometry relative="1" as="geometry">
            <Array as="points">
              <mxPoint x="2680" y="250" />
              <mxPoint x="2680" y="1380" />
            </Array>
          </mxGeometry>
        </mxCell>
        <mxCell id="fUInM-q33QLJyEfKflRt-383" style="edgeStyle=orthogonalEdgeStyle;rounded=0;orthogonalLoop=1;jettySize=auto;html=1;entryX=0.5;entryY=0;entryDx=0;entryDy=0;" edge="1" parent="1" source="fUInM-q33QLJyEfKflRt-147" target="fUInM-q33QLJyEfKflRt-372">
          <mxGeometry relative="1" as="geometry">
            <Array as="points">
              <mxPoint x="2680" y="250" />
              <mxPoint x="2680" y="1570" />
              <mxPoint x="2037" y="1570" />
            </Array>
          </mxGeometry>
        </mxCell>
        <mxCell id="fUInM-q33QLJyEfKflRt-384" style="edgeStyle=orthogonalEdgeStyle;rounded=0;orthogonalLoop=1;jettySize=auto;html=1;entryX=1;entryY=0.5;entryDx=0;entryDy=0;" edge="1" parent="1" source="fUInM-q33QLJyEfKflRt-147" target="fUInM-q33QLJyEfKflRt-376">
          <mxGeometry relative="1" as="geometry">
            <Array as="points">
              <mxPoint x="2680" y="250" />
              <mxPoint x="2680" y="1875" />
            </Array>
          </mxGeometry>
        </mxCell>
        <mxCell id="fUInM-q33QLJyEfKflRt-147" value="&lt;span style=&quot;color: rgba(0, 0, 0, 0); font-family: monospace; font-size: 0px; text-align: start;&quot;&gt;%3CmxGraphModel%3E%3Croot%3E%3CmxCell%20id%3D%220%22%2F%3E%3CmxCell%20id%3D%221%22%20parent%3D%220%22%2F%3E%3CmxCell%20id%3D%222%22%20value%3D%22New%20User%22%20style%3D%22shape%3DumlActor%3BverticalLabelPosition%3Dbottom%3BverticalAlign%3Dtop%3Bhtml%3D1%3BoutlineConnect%3D0%3B%22%20vertex%3D%221%22%20parent%3D%221%22%3E%3CmxGeometry%20x%3D%221261%22%20y%3D%2280%22%20width%3D%2230%22%20height%3D%2260%22%20as%3D%22geometry%22%2F%3E%3C%2FmxCell%3E%3C%2Froot%3E%3C%2FmxGraphModel%3E&lt;/span&gt;Registered Business" style="shape=umlActor;verticalLabelPosition=bottom;verticalAlign=top;html=1;outlineConnect=0;" vertex="1" parent="1">
          <mxGeometry x="2640" y="220" width="30" height="60" as="geometry" />
        </mxCell>
      </root>
    </mxGraphModel>
  </diagram>
</mxfile>
